<mxfile host="app.diagrams.net" agent="Mozilla/5.0 (Windows NT 10.0; Win64; x64) AppleWebKit/537.36 (KHTML, like Gecko) Chrome/134.0.0.0 Safari/537.36" version="26.1.1">
  <diagram name="Página-1" id="gUmTNNs1VUkU2ncqE4_Y">
    <mxGraphModel dx="2000" dy="568" grid="1" gridSize="10" guides="1" tooltips="1" connect="1" arrows="1" fold="1" page="1" pageScale="1" pageWidth="827" pageHeight="1169" math="0" shadow="0">
      <root>
        <mxCell id="0" />
        <mxCell id="1" parent="0" />
        <mxCell id="mdGshMWxb1fNAzCmciOg-11" style="edgeStyle=orthogonalEdgeStyle;rounded=0;orthogonalLoop=1;jettySize=auto;html=1;" parent="1" source="AqVYBFCcuA4BTf71q3W7-1" target="AqVYBFCcuA4BTf71q3W7-10" edge="1">
          <mxGeometry relative="1" as="geometry">
            <Array as="points">
              <mxPoint x="545" y="350" />
              <mxPoint x="805" y="350" />
            </Array>
          </mxGeometry>
        </mxCell>
        <mxCell id="AqVYBFCcuA4BTf71q3W7-1" value="&lt;font style=&quot;vertical-align: inherit;&quot;&gt;&lt;font style=&quot;vertical-align: inherit;&quot;&gt;organizacao_ronaldo_sa&lt;/font&gt;&lt;/font&gt;" style="rounded=0;whiteSpace=wrap;html=1;fillColor=#dae8fc;strokeColor=#6c8ebf;" parent="1" vertex="1">
          <mxGeometry x="450" y="200" width="190" height="90" as="geometry" />
        </mxCell>
        <mxCell id="AqVYBFCcuA4BTf71q3W7-20" style="edgeStyle=orthogonalEdgeStyle;rounded=0;orthogonalLoop=1;jettySize=auto;html=1;" parent="1" source="AqVYBFCcuA4BTf71q3W7-8" target="AqVYBFCcuA4BTf71q3W7-18" edge="1">
          <mxGeometry relative="1" as="geometry">
            <Array as="points">
              <mxPoint x="255" y="550" />
              <mxPoint x="85" y="550" />
            </Array>
          </mxGeometry>
        </mxCell>
        <mxCell id="AqVYBFCcuA4BTf71q3W7-44" style="edgeStyle=orthogonalEdgeStyle;rounded=0;orthogonalLoop=1;jettySize=auto;html=1;" parent="1" source="AqVYBFCcuA4BTf71q3W7-8" target="AqVYBFCcuA4BTf71q3W7-23" edge="1">
          <mxGeometry relative="1" as="geometry">
            <Array as="points">
              <mxPoint x="255" y="550" />
              <mxPoint x="473" y="550" />
            </Array>
          </mxGeometry>
        </mxCell>
        <mxCell id="AqVYBFCcuA4BTf71q3W7-8" value="&lt;font style=&quot;vertical-align: inherit;&quot;&gt;&lt;font style=&quot;vertical-align: inherit;&quot;&gt;comercial&lt;/font&gt;&lt;/font&gt;" style="rounded=0;whiteSpace=wrap;html=1;fillColor=#dae8fc;strokeColor=#6c8ebf;" parent="1" vertex="1">
          <mxGeometry x="170" y="410" width="180" height="90" as="geometry" />
        </mxCell>
        <mxCell id="mdGshMWxb1fNAzCmciOg-7" style="edgeStyle=orthogonalEdgeStyle;rounded=0;orthogonalLoop=1;jettySize=auto;html=1;entryX=0.5;entryY=0;entryDx=0;entryDy=0;" parent="1" source="AqVYBFCcuA4BTf71q3W7-10" target="mdGshMWxb1fNAzCmciOg-1" edge="1">
          <mxGeometry relative="1" as="geometry" />
        </mxCell>
        <mxCell id="AqVYBFCcuA4BTf71q3W7-10" value="financeira" style="rounded=0;html=1;fillColor=#dae8fc;strokeColor=#6c8ebf;" parent="1" vertex="1">
          <mxGeometry x="720" y="410" width="170" height="90" as="geometry" />
        </mxCell>
        <mxCell id="AqVYBFCcuA4BTf71q3W7-11" style="edgeStyle=orthogonalEdgeStyle;rounded=0;orthogonalLoop=1;jettySize=auto;html=1;entryX=0.547;entryY=0.011;entryDx=0;entryDy=0;entryPerimeter=0;" parent="1" source="AqVYBFCcuA4BTf71q3W7-1" target="AqVYBFCcuA4BTf71q3W7-8" edge="1">
          <mxGeometry relative="1" as="geometry">
            <mxPoint x="390" y="310" as="sourcePoint" />
            <Array as="points">
              <mxPoint x="410" y="350" />
              <mxPoint x="263" y="350" />
            </Array>
          </mxGeometry>
        </mxCell>
        <mxCell id="AqVYBFCcuA4BTf71q3W7-15" value="" style="image;aspect=fixed;perimeter=ellipsePerimeter;html=1;align=center;shadow=0;dashed=0;spacingTop=3;image=img/lib/active_directory/folder.svg;" parent="1" vertex="1">
          <mxGeometry x="175.4" y="410" width="29.2" height="40" as="geometry" />
        </mxCell>
        <mxCell id="AqVYBFCcuA4BTf71q3W7-27" value="" style="edgeStyle=orthogonalEdgeStyle;rounded=0;orthogonalLoop=1;jettySize=auto;html=1;" parent="1" source="AqVYBFCcuA4BTf71q3W7-18" target="AqVYBFCcuA4BTf71q3W7-25" edge="1">
          <mxGeometry relative="1" as="geometry" />
        </mxCell>
        <mxCell id="AqVYBFCcuA4BTf71q3W7-18" value="mobile" style="rounded=0;whiteSpace=wrap;html=1;fillColor=#dae8fc;strokeColor=#6c8ebf;" parent="1" vertex="1">
          <mxGeometry x="10" y="600" width="160" height="80" as="geometry" />
        </mxCell>
        <mxCell id="AqVYBFCcuA4BTf71q3W7-31" style="edgeStyle=orthogonalEdgeStyle;rounded=0;orthogonalLoop=1;jettySize=auto;html=1;entryX=0.5;entryY=0;entryDx=0;entryDy=0;" parent="1" source="AqVYBFCcuA4BTf71q3W7-23" target="AqVYBFCcuA4BTf71q3W7-28" edge="1">
          <mxGeometry relative="1" as="geometry" />
        </mxCell>
        <mxCell id="AqVYBFCcuA4BTf71q3W7-32" style="edgeStyle=orthogonalEdgeStyle;rounded=0;orthogonalLoop=1;jettySize=auto;html=1;entryX=0.5;entryY=0;entryDx=0;entryDy=0;" parent="1" source="AqVYBFCcuA4BTf71q3W7-23" target="AqVYBFCcuA4BTf71q3W7-29" edge="1">
          <mxGeometry relative="1" as="geometry" />
        </mxCell>
        <mxCell id="AqVYBFCcuA4BTf71q3W7-23" value="ERP" style="rounded=0;whiteSpace=wrap;html=1;fillColor=#dae8fc;strokeColor=#6c8ebf;" parent="1" vertex="1">
          <mxGeometry x="390" y="600" width="166" height="80" as="geometry" />
        </mxCell>
        <mxCell id="AqVYBFCcuA4BTf71q3W7-35" style="edgeStyle=orthogonalEdgeStyle;rounded=0;orthogonalLoop=1;jettySize=auto;html=1;entryX=0.5;entryY=0;entryDx=0;entryDy=0;" parent="1" source="AqVYBFCcuA4BTf71q3W7-25" edge="1">
          <mxGeometry relative="1" as="geometry">
            <mxPoint x="-30" y="940" as="targetPoint" />
          </mxGeometry>
        </mxCell>
        <mxCell id="AqVYBFCcuA4BTf71q3W7-25" value="desenvolvimento" style="rounded=0;whiteSpace=wrap;html=1;fillColor=#dae8fc;strokeColor=#6c8ebf;" parent="1" vertex="1">
          <mxGeometry x="-90" y="760" width="150" height="70" as="geometry" />
        </mxCell>
        <mxCell id="AqVYBFCcuA4BTf71q3W7-41" style="edgeStyle=orthogonalEdgeStyle;rounded=0;orthogonalLoop=1;jettySize=auto;html=1;entryX=0.5;entryY=0;entryDx=0;entryDy=0;" parent="1" source="AqVYBFCcuA4BTf71q3W7-26" target="AqVYBFCcuA4BTf71q3W7-38" edge="1">
          <mxGeometry relative="1" as="geometry" />
        </mxCell>
        <mxCell id="AqVYBFCcuA4BTf71q3W7-26" value="produção" style="rounded=0;whiteSpace=wrap;html=1;fillColor=#dae8fc;strokeColor=#6c8ebf;" parent="1" vertex="1">
          <mxGeometry x="110" y="760" width="150" height="70" as="geometry" />
        </mxCell>
        <mxCell id="AqVYBFCcuA4BTf71q3W7-42" style="edgeStyle=orthogonalEdgeStyle;rounded=0;orthogonalLoop=1;jettySize=auto;html=1;entryX=0.5;entryY=0;entryDx=0;entryDy=0;" parent="1" source="AqVYBFCcuA4BTf71q3W7-28" target="AqVYBFCcuA4BTf71q3W7-39" edge="1">
          <mxGeometry relative="1" as="geometry" />
        </mxCell>
        <mxCell id="AqVYBFCcuA4BTf71q3W7-28" value="desenvolvimento" style="rounded=0;whiteSpace=wrap;html=1;fillColor=#dae8fc;strokeColor=#6c8ebf;" parent="1" vertex="1">
          <mxGeometry x="320" y="760" width="140" height="70" as="geometry" />
        </mxCell>
        <mxCell id="AqVYBFCcuA4BTf71q3W7-43" style="edgeStyle=orthogonalEdgeStyle;rounded=0;orthogonalLoop=1;jettySize=auto;html=1;entryX=0.5;entryY=0;entryDx=0;entryDy=0;" parent="1" source="AqVYBFCcuA4BTf71q3W7-29" target="AqVYBFCcuA4BTf71q3W7-40" edge="1">
          <mxGeometry relative="1" as="geometry" />
        </mxCell>
        <mxCell id="AqVYBFCcuA4BTf71q3W7-29" value="produção" style="rounded=0;whiteSpace=wrap;html=1;fillColor=#dae8fc;strokeColor=#6c8ebf;" parent="1" vertex="1">
          <mxGeometry x="515" y="760" width="135" height="70" as="geometry" />
        </mxCell>
        <mxCell id="AqVYBFCcuA4BTf71q3W7-30" style="edgeStyle=orthogonalEdgeStyle;rounded=0;orthogonalLoop=1;jettySize=auto;html=1;entryX=0.46;entryY=0.029;entryDx=0;entryDy=0;entryPerimeter=0;" parent="1" source="AqVYBFCcuA4BTf71q3W7-18" target="AqVYBFCcuA4BTf71q3W7-26" edge="1">
          <mxGeometry relative="1" as="geometry" />
        </mxCell>
        <mxCell id="AqVYBFCcuA4BTf71q3W7-36" value="ronaldo_sa-comercial-mobile-dev" style="rounded=1;whiteSpace=wrap;html=1;fillColor=#fff2cc;strokeColor=#d6b656;" parent="1" vertex="1">
          <mxGeometry x="-90" y="940" width="150" height="80" as="geometry" />
        </mxCell>
        <mxCell id="AqVYBFCcuA4BTf71q3W7-38" value="&lt;font style=&quot;vertical-align: inherit;&quot;&gt;&lt;font style=&quot;vertical-align: inherit;&quot;&gt;ronaldo_sa-comercial-mobile-prod&lt;/font&gt;&lt;/font&gt;" style="rounded=1;whiteSpace=wrap;html=1;fillColor=#fff2cc;strokeColor=#d6b656;" parent="1" vertex="1">
          <mxGeometry x="120" y="940" width="140" height="80" as="geometry" />
        </mxCell>
        <mxCell id="AqVYBFCcuA4BTf71q3W7-39" value="&lt;font style=&quot;vertical-align: inherit;&quot;&gt;&lt;font style=&quot;vertical-align: inherit;&quot;&gt;ronaldo_sa-erp-dev&lt;/font&gt;&lt;/font&gt;" style="rounded=1;whiteSpace=wrap;html=1;fillColor=#fff2cc;strokeColor=#d6b656;" parent="1" vertex="1">
          <mxGeometry x="320" y="940" width="140" height="80" as="geometry" />
        </mxCell>
        <mxCell id="AqVYBFCcuA4BTf71q3W7-40" value="&lt;font style=&quot;vertical-align: inherit;&quot;&gt;&lt;font style=&quot;vertical-align: inherit;&quot;&gt;&lt;font style=&quot;vertical-align: inherit;&quot;&gt;&lt;font style=&quot;vertical-align: inherit;&quot;&gt;ronaldo_sa-erp-prod&lt;/font&gt;&lt;/font&gt;&lt;/font&gt;&lt;/font&gt;" style="rounded=1;whiteSpace=wrap;html=1;fillColor=#fff2cc;strokeColor=#d6b656;" parent="1" vertex="1">
          <mxGeometry x="520" y="940" width="140" height="80" as="geometry" />
        </mxCell>
        <mxCell id="AqVYBFCcuA4BTf71q3W7-46" value="" style="image;aspect=fixed;perimeter=ellipsePerimeter;html=1;align=center;shadow=0;dashed=0;spacingTop=3;image=img/lib/active_directory/folder.svg;" parent="1" vertex="1">
          <mxGeometry y="590" width="29.2" height="40" as="geometry" />
        </mxCell>
        <mxCell id="AqVYBFCcuA4BTf71q3W7-48" value="" style="image;aspect=fixed;perimeter=ellipsePerimeter;html=1;align=center;shadow=0;dashed=0;spacingTop=3;image=img/lib/active_directory/folder.svg;" parent="1" vertex="1">
          <mxGeometry x="-100" y="750" width="29.2" height="40" as="geometry" />
        </mxCell>
        <mxCell id="AqVYBFCcuA4BTf71q3W7-49" value="" style="image;aspect=fixed;perimeter=ellipsePerimeter;html=1;align=center;shadow=0;dashed=0;spacingTop=3;image=img/lib/active_directory/folder.svg;" parent="1" vertex="1">
          <mxGeometry x="240.4" y="740" width="29.2" height="40" as="geometry" />
        </mxCell>
        <mxCell id="AqVYBFCcuA4BTf71q3W7-51" value="" style="image;aspect=fixed;perimeter=ellipsePerimeter;html=1;align=center;shadow=0;dashed=0;spacingTop=3;image=img/lib/active_directory/folder.svg;" parent="1" vertex="1">
          <mxGeometry x="384" y="590" width="29.2" height="40" as="geometry" />
        </mxCell>
        <mxCell id="mdGshMWxb1fNAzCmciOg-8" style="edgeStyle=orthogonalEdgeStyle;rounded=0;orthogonalLoop=1;jettySize=auto;html=1;entryX=0.5;entryY=0;entryDx=0;entryDy=0;" parent="1" source="mdGshMWxb1fNAzCmciOg-1" target="mdGshMWxb1fNAzCmciOg-5" edge="1">
          <mxGeometry relative="1" as="geometry" />
        </mxCell>
        <mxCell id="mdGshMWxb1fNAzCmciOg-9" style="edgeStyle=orthogonalEdgeStyle;rounded=0;orthogonalLoop=1;jettySize=auto;html=1;entryX=0.5;entryY=0;entryDx=0;entryDy=0;" parent="1" source="mdGshMWxb1fNAzCmciOg-1" target="mdGshMWxb1fNAzCmciOg-6" edge="1">
          <mxGeometry relative="1" as="geometry" />
        </mxCell>
        <mxCell id="mdGshMWxb1fNAzCmciOg-1" value="&lt;font style=&quot;vertical-align: inherit;&quot;&gt;&lt;font style=&quot;vertical-align: inherit;&quot;&gt;Salesforce&lt;/font&gt;&lt;/font&gt;" style="rounded=0;whiteSpace=wrap;html=1;fillColor=#dae8fc;strokeColor=#6c8ebf;" parent="1" vertex="1">
          <mxGeometry x="810" y="600" width="150" height="80" as="geometry" />
        </mxCell>
        <mxCell id="mdGshMWxb1fNAzCmciOg-18" style="edgeStyle=orthogonalEdgeStyle;rounded=0;orthogonalLoop=1;jettySize=auto;html=1;entryX=0.5;entryY=0;entryDx=0;entryDy=0;" parent="1" source="mdGshMWxb1fNAzCmciOg-5" target="mdGshMWxb1fNAzCmciOg-10" edge="1">
          <mxGeometry relative="1" as="geometry" />
        </mxCell>
        <mxCell id="mdGshMWxb1fNAzCmciOg-5" value="&lt;font style=&quot;vertical-align: inherit;&quot;&gt;&lt;font style=&quot;vertical-align: inherit;&quot;&gt;&lt;font style=&quot;vertical-align: inherit;&quot;&gt;&lt;font style=&quot;vertical-align: inherit;&quot;&gt;desenvolvimento&lt;/font&gt;&lt;/font&gt;&lt;/font&gt;&lt;/font&gt;" style="rounded=0;whiteSpace=wrap;html=1;fillColor=#dae8fc;strokeColor=#6c8ebf;" parent="1" vertex="1">
          <mxGeometry x="720" y="760" width="140" height="70" as="geometry" />
        </mxCell>
        <mxCell id="mdGshMWxb1fNAzCmciOg-6" value="&lt;font style=&quot;vertical-align: inherit;&quot;&gt;&lt;font style=&quot;vertical-align: inherit;&quot;&gt;produção&lt;/font&gt;&lt;/font&gt;" style="rounded=0;whiteSpace=wrap;html=1;fillColor=#dae8fc;strokeColor=#6c8ebf;" parent="1" vertex="1">
          <mxGeometry x="910" y="760" width="139.2" height="70" as="geometry" />
        </mxCell>
        <mxCell id="mdGshMWxb1fNAzCmciOg-10" value="&lt;font style=&quot;vertical-align: inherit;&quot;&gt;&lt;font style=&quot;vertical-align: inherit;&quot;&gt;ronaldo_sa-salesforce-dev&lt;/font&gt;&lt;/font&gt;" style="rounded=1;whiteSpace=wrap;html=1;fillColor=#fff2cc;strokeColor=#d6b656;" parent="1" vertex="1">
          <mxGeometry x="730" y="940" width="140" height="80" as="geometry" />
        </mxCell>
        <mxCell id="mdGshMWxb1fNAzCmciOg-12" value="" style="image;aspect=fixed;perimeter=ellipsePerimeter;html=1;align=center;shadow=0;dashed=0;spacingTop=3;image=img/lib/active_directory/folder.svg;" parent="1" vertex="1">
          <mxGeometry x="800" y="590" width="29.2" height="40" as="geometry" />
        </mxCell>
        <mxCell id="mdGshMWxb1fNAzCmciOg-13" value="" style="image;aspect=fixed;perimeter=ellipsePerimeter;html=1;align=center;shadow=0;dashed=0;spacingTop=3;image=img/lib/active_directory/folder.svg;" parent="1" vertex="1">
          <mxGeometry x="720" y="750" width="29.2" height="40" as="geometry" />
        </mxCell>
        <mxCell id="mdGshMWxb1fNAzCmciOg-14" value="" style="image;aspect=fixed;perimeter=ellipsePerimeter;html=1;align=center;shadow=0;dashed=0;spacingTop=3;image=img/lib/active_directory/folder.svg;" parent="1" vertex="1">
          <mxGeometry x="900" y="750" width="29.2" height="40" as="geometry" />
        </mxCell>
        <mxCell id="mdGshMWxb1fNAzCmciOg-17" value="" style="image;aspect=fixed;perimeter=ellipsePerimeter;html=1;align=center;shadow=0;dashed=0;spacingTop=3;image=img/lib/active_directory/folder.svg;" parent="1" vertex="1">
          <mxGeometry x="730" y="410" width="29.2" height="40" as="geometry" />
        </mxCell>
      </root>
    </mxGraphModel>
  </diagram>
</mxfile>
